<?xml version="1.0" encoding="iso-8859-1"?>
<!-- Generator: Adobe Illustrator 19.0.0, SVG Export Plug-In . SVG Version: 6.00 Build 0)  -->
<svg version="1.1" id="Capa_1" xmlns="http://www.w3.org/2000/svg" xmlns:xlink="http://www.w3.org/1999/xlink" x="0px" y="0px"
	 viewBox="0 0 512 512" style="enable-background:new 0 0 512 512;" xml:space="preserve">
<g>
	<g>
		<ellipse cx="34.743" cy="294.811" rx="10.297" ry="19.234"/>
	</g>
</g>
<g>
	<g>
		<circle cx="99.441" cy="265.201" r="13.62"/>
	</g>
</g>
<g>
	<g>
		<path d="M259.109,9.422c-4.142,0-7.5,3.358-7.5,7.5v23.593c0,4.142,3.358,7.5,7.5,7.5s7.5-3.358,7.5-7.5V16.922
			C266.61,12.78,263.252,9.422,259.109,9.422z"/>
	</g>
</g>
<g>
	<g>
		<path d="M384.195,96.551c-1.436-3.885-5.75-5.87-9.635-4.435l-22.13,8.178c-3.885,1.436-5.871,5.749-4.436,9.634
			c1.414,3.827,5.815,5.846,9.635,4.436l22.13-8.178C383.644,104.75,385.63,100.436,384.195,96.551z"/>
	</g>
</g>
<g>
	<g>
		<path d="M337.196,34.676c-3.357-2.426-8.045-1.669-10.471,1.688L312.91,55.489c-2.426,3.357-1.67,8.046,1.688,10.471
			c3.318,2.398,8.076,1.628,10.471-1.688l13.815-19.125C341.31,41.79,340.554,37.101,337.196,34.676z"/>
	</g>
</g>
<g>
	<g>
		<path d="M165.79,100.294l-22.13-8.178c-3.886-1.437-8.199,0.55-9.635,4.436c-1.436,3.885,0.55,8.199,4.436,9.635l22.13,8.178
			c3.834,1.415,8.216-0.598,9.635-4.436C171.662,106.043,169.676,101.73,165.79,100.294z"/>
	</g>
</g>
<g>
	<g>
		<path d="M205.309,55.489l-13.815-19.125c-2.425-3.357-7.113-4.114-10.471-1.688c-3.358,2.425-4.114,7.114-1.688,10.471
			c0,0,13.805,19.111,13.815,19.125c2.395,3.315,7.159,4.082,10.471,1.688C206.979,63.535,207.735,58.846,205.309,55.489z"/>
	</g>
</g>
<g>
	<g>
		<path d="M510.727,263.919c-0.512-2.944-2.725-5.304-5.631-6.004s-5.95,0.392-7.749,2.779c-0.055,0.073-5.683,6.608-21.943,9.705
			c-9.248-35.211-33.119-67.616-68.59-91.966c-3.416-2.344-8.084-1.477-10.428,1.938s-1.477,8.084,1.938,10.428
			c39.54,27.143,63.275,64.885,66.102,104.566c0.003,0.048,0.006,0.096,0.009,0.144c3.924,59.159-40.252,109.278-90.204,134.641
			c-0.126,0.064-0.251,0.128-0.378,0.192c-65.711,33.031-147.816,34.822-215.479,6.448c-42.563-17.848-82.249-49.725-98.079-94.371
			c-1.25-3.525-4.903-5.589-8.57-4.842c0,0-29.448,6.017-29.449,6.017c-1.992,0.404-3.979-0.935-4.302-2.948
			C16.618,332.194,15,318.865,15,303.367s1.618-28.827,2.976-37.281c0.324-2.015,2.321-3.352,4.303-2.947l29.448,6.017
			c3.663,0.748,7.321-1.316,8.57-4.842c6.321-17.828,16.728-34.228,30.349-48.702c0.21-0.177,0.426-0.345,0.616-0.545
			c18.278-19.215,40.995-33.838,65.255-44.333c34.124-14.759,71.405-20.38,108.404-20.38c20.67,0,41.296,3.141,61.284,8.299
			c16.218,4.179,31.753,9.88,46.257,17.046c3.713,1.834,8.211,0.311,10.046-3.402c1.835-3.714,0.312-8.212-3.402-10.046
			c-11.781-5.821-24.201-10.716-37.077-14.69c0.096-1.613,0.154-3.213,0.154-4.786c0-45.807-37.267-83.073-83.073-83.073
			s-83.073,37.266-83.073,83.073c0,1.592,0.059,3.212,0.158,4.846c-4.934,1.527-9.787,3.184-14.546,4.972
			c-7.332-9.82-26.559-28.753-67.756-32.86c-0.765-0.076-1.54-0.115-2.304-0.115c-12.42,0-22.687,10.069-22.887,22.446
			c-0.234,14.37,1.157,37.224,8.794,65.797c-12.425,13.681-22.292,28.904-29.001,45.324c0,0-23.202-4.74-23.21-4.742
			c-10.24-2.092-20.462,4.962-22.116,15.267C1.721,272.701,0,286.88,0,303.367c0,16.487,1.721,30.666,3.165,39.656
			c1.641,10.218,11.848,17.366,22.116,15.268l23.21-4.742c12.345,30.211,35.377,56.369,65.375,76.321l-7.136,35.874
			c-1.93,9.703,3.651,19.497,12.984,22.781c0,0,36.779,12.94,36.783,12.942c9.194,3.235,19.653-0.819,24.267-9.402l14.9-27.72
			c20.217,4.635,41.54,7.115,63.444,7.115c21.815,0,43.154-2.398,63.493-7.022c0,0,14.838,27.603,14.85,27.627
			c4.592,8.543,15.123,12.62,24.267,9.402l36.783-12.942c9.333-3.284,14.914-13.077,12.984-22.78l-7.12-35.797
			c35.428-23.649,64.502-58.636,72.873-101.213c4.552-1.662,11.494-4.892,17.964-10.705
			C505.046,309.191,515.727,292.627,510.727,263.919z M294.58,137.437c-13.377-1.646-26.844-2.304-40.318-2.12
			c-10.382,0.169-20.666,0.887-30.81,2.141c2.578-17.367,17.587-30.734,35.659-30.734c18.073,0,33.082,13.368,35.659,30.735
			C294.706,137.451,294.643,137.445,294.58,137.437z M259.109,74.702c37.536,0,68.073,30.538,68.073,68.073
			c0,0.215-0.001,0.43-0.003,0.646c-1.728-0.426-5.568-1.304-5.75-1.344c-3.764-0.842-7.551-1.611-11.364-2.298
			c-1.557-26.759-23.812-48.054-50.955-48.054c-27.141,0-49.395,21.292-50.955,48.049c-5.761,1.037-11.47,2.248-17.115,3.641
			c-0.002-0.214-0.003-0.427-0.003-0.64C191.036,105.239,221.574,74.702,259.109,74.702z M83.698,142.307
			c0.068-4.24,3.607-7.689,7.889-7.689c0.27,0,0.544,0.014,0.816,0.041c31.715,3.161,47.7,15.856,54.755,23.805
			c-21.646,9.731-41.144,22.336-57.31,37.031C84.516,172.571,83.503,154.272,83.698,142.307z M167.553,484.964
			c-1.154,2.147-3.787,3.159-6.076,2.354l-36.783-12.942c-2.336-0.822-3.734-3.274-3.25-5.704l6.035-30.342
			c16.349,9.274,34.173,16.718,53.2,22.215C180.679,460.545,167.568,484.936,167.553,484.964z M393.526,474.376l-36.783,12.942
			c-2.305,0.811-4.915-0.196-6.076-2.354l-13.106-24.382c18.913-5.462,36.791-12.924,53.184-22.234l6.031,30.324
			C397.259,471.101,395.862,473.554,393.526,474.376z M485.605,306.486c-2.018,1.871-4.121,3.389-6.126,4.609
			c0.246-4.066,0.297-8.144,0.155-12.215c-0.16-4.606-0.562-9.212-1.208-13.783c7.875-1.52,13.961-3.774,18.57-6.097
			C496.785,290.439,492.974,299.652,485.605,306.486z"/>
	</g>
</g>
<g>
</g>
<g>
</g>
<g>
</g>
<g>
</g>
<g>
</g>
<g>
</g>
<g>
</g>
<g>
</g>
<g>
</g>
<g>
</g>
<g>
</g>
<g>
</g>
<g>
</g>
<g>
</g>
<g>
</g>
</svg>
