<?xml version="1.0"?>
<svg xmlns="http://www.w3.org/2000/svg" id="Layer_1" data-name="Layer 1" viewBox="0 0 512 512" width="512" height="512"><title>Bitcoin</title><path d="M256,51.87c112.74,0,204.13,91.39,204.13,204.13S368.74,460.13,256,460.13,51.87,368.74,51.87,256,143.26,51.87,256,51.87ZM409.75,256A153.75,153.75,0,1,0,256,409.75,153.755,153.755,0,0,0,409.75,256Z" style="fill:#00efd1"/><path d="M254,336h20a40,40,0,0,0,0-80,40,40,0,0,0,0-80H218V336h36Zm2-233.75A153.75,153.75,0,1,1,102.25,256,153.755,153.755,0,0,1,256,102.25Z" style="fill:#fedb41"/><path d="M274,176a40,40,0,0,1,0,80H218V176h56Z" style="fill:#fedb41"/><path d="M274,256a40,40,0,0,1,0,80H218V256Z" style="fill:#fedb41"/><path d="M322,216a48.055,48.055,0,0,0-48-48H262V150a8,8,0,0,0-16,0v18H232V150a8,8,0,0,0-16,0v18H198a8,8,0,0,0,0,16h12V328H198a8,8,0,0,0,0,16h18v18a8,8,0,0,0,16,0V344h14v18a8,8,0,0,0,16,0V344h12a47.983,47.983,0,0,0,26.52-87.983,48.486,48.486,0,0,0,7.417-6.08A47.682,47.682,0,0,0,322,216Zm-16,80a32.015,32.015,0,0,1-32,32H226V264h48A32.036,32.036,0,0,1,306,296Zm-9.377-57.377A31.787,31.787,0,0,1,274,248H226V184h48a31.994,31.994,0,0,1,22.623,54.623Z" style="fill:#083863"/><path d="M256,94.25C166.811,94.25,94.25,166.811,94.25,256S166.811,417.75,256,417.75,417.75,345.189,417.75,256,345.189,94.25,256,94.25Zm0,307.5c-80.367,0-145.75-65.383-145.75-145.75S175.633,110.25,256,110.25,401.75,175.633,401.75,256,336.367,401.75,256,401.75Z" style="fill:#083863"/><path d="M256,43.87A212.131,212.131,0,0,0,106,406,212.131,212.131,0,0,0,406,106,210.742,210.742,0,0,0,256,43.87Zm0,408.26C147.854,452.13,59.87,364.146,59.87,256S147.854,59.87,256,59.87,452.13,147.854,452.13,256,364.146,452.13,256,452.13Z" style="fill:#083863"/></svg>
